<svg class="like-icon" fill="#fff">
    <g class="heart">
        <path class="contour" d="M6 0H3v3h3V0Zm3 0H6v3h3V0ZM3 3H0v3h3V3Zm0 3H0v3h3V6Zm0 3H0v3h3V9Zm9-9H9v3h3V0ZM6 12H3v3h3v-3Zm3 3H6v3h3v-3Zm3 3H9v3h3v-3Zm9-18h3v3h-3V0Zm-3 0h3v3h-3V0Zm6 3h3v3h-3V3Zm0 3h3v3h-3V6Zm0 3h3v3h-3V9Zm-9-9h3v3h-3V0Zm6 12h3v3h-3v-3Zm-3 3h3v3h-3v-3Zm-3 3h3v3h-3v-3Zm0 3h-3v3h3v-3Zm0-18h-3v3h3V3Z"
          fill="#fff"/>
        <path class="main-body" d="M6 3H3v3h3V3Zm3 3H6v3h3V6Zm3-3H9v3h3V3ZM6 9H3v3h3V9Zm3 0H6v3h3V9Zm0 3H6v3h3v-3Zm3-6H9v3h3V6Zm0 9H9v3h3v-3Zm0-3H9v3h3v-3Zm9-9h3v3h-3V3Zm-3 0h3v3h-3V3Zm3 3h3v3h-3V6Zm-3 0h3v3h-3V6Zm-3-3h3v3h-3V3Zm6 6h3v3h-3V9Zm-3 0h3v3h-3V9Zm0 3h3v3h-3v-3Zm-3-6h3v3h-3V6Zm0 9h3v3h-3v-3Zm0-3h3v3h-3v-3Zm0 3h-3v3h3v-3Zm0 3h-3v3h3v-3Z"
          fill="#fff"/>
        <path class="core" d="M12 9H9v3h3V9Zm3 0h3v3h-3V9Zm0 0h-3v3h3V9Zm0-3h-3v3h3V6Zm0 6h-3v3h3v-3Z" fill="#fff"/>
    </g>
    <path class="sparks" fill="#fff"
          d="M36 13h3v3h-3v-3Zm-9 14h3v3h-3v-3Zm-9 6h3v3h-3v-3Zm-9-6h3v3H9v-3ZM24 0h3v3h-3V0Zm9 3h3v3h-3V3ZM3 3h3v3H3V3Zm9-3h3v3h-3V0ZM0 13h3v3H0v-3Z"/>
</svg>
